<svg width="64" height="64" viewBox="0 0 64 64" xmlns="http://www.w3.org/2000/svg">
  <defs>
    <linearGradient id="bgB" x1="0%" y1="0%" x2="100%" y2="100%">
      <stop offset="0%" style="stop-color:#0B6E4F"/>
      <stop offset="100%" style="stop-color:#073B2A"/>
    </linearGradient>
  </defs>
  <rect x="2" y="2" width="60" height="60" rx="14" fill="url(#bgB)"/>
  <g fill="none" stroke="#A8E6CF" stroke-width="1.5" stroke-linecap="round">
    <path d="M20 48 Q12 42 14 36" />
    <path d="M20 48 Q10 38 14 30" />
    <path d="M20 48 Q12 32 16 24" />
    <path d="M20 48 Q16 28 22 18" />
    <path d="M20 48 Q20 24 26 14" />
  </g>
  <g fill="#A8E6CF" opacity="0.8">
    <circle cx="13" cy="36" r="2.5"/>
    <circle cx="12" cy="30" r="2.3"/>
    <circle cx="14" cy="24" r="2.2"/>
    <circle cx="19" cy="18" r="2"/>
    <circle cx="25" cy="13" r="1.8"/>
  </g>
  <g fill="none" stroke="#A8E6CF" stroke-width="1.5" stroke-linecap="round">
    <path d="M44 48 Q52 42 50 36" />
    <path d="M44 48 Q54 38 50 30" />
    <path d="M44 48 Q52 32 48 24" />
    <path d="M44 48 Q48 28 42 18" />
    <path d="M44 48 Q44 24 38 14" />
  </g>
  <g fill="#A8E6CF" opacity="0.8">
    <circle cx="51" cy="36" r="2.5"/>
    <circle cx="52" cy="30" r="2.3"/>
    <circle cx="50" cy="24" r="2.2"/>
    <circle cx="45" cy="18" r="2"/>
    <circle cx="39" cy="13" r="1.8"/>
  </g>
  <text x="32" y="42" text-anchor="middle" font-family="Georgia, 'Times New Roman', serif" font-size="28" font-weight="bold" fill="#FFFFFF" letter-spacing="-1">G</text>
</svg>